# xmcd CD database file
#
# Track frame offsets:
#	150
#	17277
#	30985
#	51092
#	69565
#	87905
#	110050
#	124832
#	140937
#	156440
#	175097
#
# Disc length: 2632 seconds
#
# Revision: 2
# Processed by: cddbd v1.4PL0 Copyright (c) Steve Scherf et al.
# Submitted via: CDex 1.50
#
DISCID=920a460b
DTITLE=Sons of the Desert - Whatever Comes First
DYEAR=1997
DGENRE=Country
TTITLE0=Hand of Fate
TTITLE1=Whatever Comes First
TTITLE2=Leaving October
TTITLE3=Bring on the Angel
TTITLE4=You Can Come Cryin' To Me
TTITLE5=Colorado
TTITLE6=When It's Right
TTITLE7=Promises
TTITLE8=Drive Away
TTITLE9=Devil On Both Shoulders
TTITLE10=Burned In My Mind
EXTD=YEAR: 1997
EXTT0=
EXTT1=
EXTT2=
EXTT3=
EXTT4=
EXTT5=
EXTT6=
EXTT7=
EXTT8=
EXTT9=
EXTT10=
PLAYORDER=
